<svg width="1440" height="537" viewBox="0 0 1440 537" fill="none" xmlns="http://www.w3.org/2000/svg">
<path d="M111.438 285.334L-6.45111 285.004L-6.42281 273.531L17.4491 273.531L17.4491 208.862C17.5701 205.823 19.6504 203.392 22.2504 203.25C25.0307 203.1 27.3896 205.612 27.5183 208.862L27.5183 273.531L47.091 273.531L47.091 244.172C47.2119 241.133 49.2923 238.701 51.8923 238.56C54.6726 238.41 57.0316 240.922 57.1602 244.172L57.1602 273.531L76.733 273.531L76.7329 208.862C76.8539 205.823 78.9342 203.392 81.5342 203.25C84.3146 203.1 86.6735 205.612 86.8021 208.862L86.8022 273.531L106.375 273.531L106.375 244.172C106.496 241.133 108.576 238.701 111.176 238.56C113.956 238.41 116.315 240.922 116.444 244.172L116.444 273.531L136.017 273.531L136.017 244.172C136.01 243.991 136.01 243.809 136.017 243.627C136.145 240.377 138.504 237.864 141.285 238.015C144.065 238.165 146.215 240.922 146.086 244.172L146.086 273.531L165.659 273.531L165.602 208.796C165.859 206.079 167.68 203.925 170.002 203.595C172.766 203.201 175.278 205.5 175.615 208.73L175.615 273.399L195.187 273.399L195.301 244.172C195.422 241.133 197.502 238.701 200.102 238.56C202.882 238.41 205.241 240.922 205.37 244.172L205.37 273.531L224.943 273.531L224.943 244.172C224.935 243.99 224.935 243.809 224.943 243.627C225.071 240.377 227.43 237.864 230.21 238.015C232.991 238.165 235.14 240.922 235.012 244.172L235.012 273.531L254.584 273.531L254.584 208.862C254.705 205.823 256.786 203.392 259.386 203.25C262.166 203.1 264.525 205.612 264.654 208.862L264.654 273.531L284.226 273.531L284.226 244.172C284.347 241.133 286.428 238.701 289.028 238.56C291.808 238.41 294.167 240.922 294.296 244.172L294.296 273.531L313.868 273.531L313.812 244.106C313.805 243.924 313.805 243.743 313.812 243.561C313.94 240.311 316.299 237.798 319.08 237.948C321.86 238.099 324.01 240.856 323.881 244.106L323.881 273.465L343.454 273.465L343.454 208.796C343.447 208.614 343.447 208.433 343.454 208.251C343.582 205.001 345.941 202.488 348.722 202.639C351.502 202.789 353.652 205.546 353.523 208.796L353.523 273.465L424.488 273.234L424.488 285.268L348.573 285.202L318.931 285.202L170.722 285.202L141.08 285.334L111.438 285.334Z" fill="white" fill-opacity="0.35"/>
<path d="M466.438 284.165L348.549 283.835L348.577 272.362L372.449 272.362L372.449 207.694C372.57 204.654 374.65 202.223 377.25 202.081C380.031 201.931 382.39 204.444 382.518 207.694L382.518 272.362L402.091 272.362L402.091 243.003C402.212 239.964 404.292 237.533 406.892 237.391C409.673 237.241 412.032 239.754 412.16 243.003L412.16 272.362L431.733 272.362L431.733 207.694C431.854 204.654 433.934 202.223 436.534 202.081C439.315 201.931 441.673 204.444 441.802 207.694L441.802 272.362L461.375 272.362L461.375 243.003C461.496 239.964 463.576 237.533 466.176 237.391C468.956 237.241 471.315 239.753 471.444 243.003L471.444 272.362L491.017 272.362L491.017 243.003C491.01 242.822 491.01 242.64 491.017 242.458C491.146 239.208 493.504 236.695 496.285 236.846C499.065 236.996 501.215 239.753 501.086 243.003L501.086 272.362L520.659 272.362L520.602 207.627C520.859 204.911 522.68 202.757 525.002 202.426C527.766 202.033 530.278 204.331 530.615 207.561L530.615 272.23L550.188 272.23L550.301 243.003C550.422 239.964 552.502 237.533 555.102 237.391C557.882 237.241 560.241 239.753 560.37 243.003L560.37 272.362L579.943 272.362L579.943 243.003C579.935 242.822 579.936 242.64 579.943 242.458C580.071 239.208 582.43 236.695 585.211 236.846C587.991 236.996 590.14 239.753 590.012 243.003L590.012 272.362L609.584 272.362L609.584 207.694C609.705 204.654 611.786 202.223 614.386 202.081C617.166 201.931 619.525 204.444 619.654 207.693L619.654 272.362L639.226 272.362L639.226 243.003C639.347 239.964 641.428 237.533 644.028 237.391C646.808 237.241 649.167 239.753 649.296 243.003L649.296 272.362L668.868 272.362L668.812 242.937C668.805 242.755 668.805 242.574 668.812 242.392C668.94 239.142 671.299 236.629 674.08 236.78C676.86 236.93 679.01 239.687 678.881 242.937L678.881 272.296L698.454 272.296L698.454 207.627C698.447 207.446 698.447 207.264 698.454 207.082C698.582 203.832 700.941 201.319 703.722 201.47C706.502 201.62 708.652 204.377 708.523 207.627L708.523 272.296L779.488 272.065L779.488 284.099L703.573 284.033L673.931 284.033L525.722 284.033L496.08 284.165L466.438 284.165Z" fill="white" fill-opacity="0.35"/>
<path d="M822.438 284.165L704.549 283.835L704.577 272.362L728.449 272.362L728.449 207.694C728.57 204.654 730.65 202.223 733.25 202.081C736.031 201.931 738.39 204.444 738.518 207.694L738.518 272.362L758.091 272.362L758.091 243.003C758.212 239.964 760.292 237.533 762.892 237.391C765.673 237.241 768.032 239.754 768.16 243.003L768.16 272.362L787.733 272.362L787.733 207.694C787.854 204.654 789.934 202.223 792.534 202.081C795.315 201.931 797.673 204.444 797.802 207.694L797.802 272.362L817.375 272.362L817.375 243.003C817.496 239.964 819.576 237.533 822.176 237.391C824.956 237.241 827.315 239.753 827.444 243.003L827.444 272.362L847.017 272.362L847.017 243.003C847.01 242.822 847.01 242.64 847.017 242.458C847.145 239.208 849.504 236.695 852.285 236.846C855.065 236.996 857.215 239.753 857.086 243.003L857.086 272.362L876.659 272.362L876.602 207.627C876.859 204.911 878.68 202.757 881.002 202.426C883.766 202.033 886.278 204.331 886.615 207.561L886.615 272.23L906.187 272.23L906.301 243.003C906.422 239.964 908.502 237.533 911.102 237.391C913.882 237.241 916.241 239.753 916.37 243.003L916.37 272.362L935.943 272.362L935.943 243.003C935.935 242.822 935.935 242.64 935.943 242.458C936.071 239.208 938.43 236.695 941.21 236.846C943.991 236.996 946.14 239.753 946.012 243.003L946.012 272.362L965.584 272.362L965.584 207.694C965.705 204.654 967.786 202.223 970.386 202.081C973.166 201.931 975.525 204.444 975.654 207.694L975.654 272.362L995.226 272.362L995.226 243.003C995.347 239.964 997.428 237.533 1000.03 237.391C1002.81 237.241 1005.17 239.753 1005.3 243.003L1005.3 272.362L1024.87 272.362L1024.81 242.937C1024.8 242.755 1024.8 242.574 1024.81 242.392C1024.94 239.142 1027.3 236.629 1030.08 236.78C1032.86 236.93 1035.01 239.687 1034.88 242.937L1034.88 272.296L1054.45 272.296L1054.45 207.627C1054.45 207.446 1054.45 207.264 1054.45 207.082C1054.58 203.832 1056.94 201.319 1059.72 201.47C1062.5 201.62 1064.65 204.377 1064.52 207.627L1064.52 272.296L1135.49 272.065L1135.49 284.099L1059.57 284.033L1029.93 284.033L881.722 284.033L852.08 284.165L822.438 284.165Z" fill="white" fill-opacity="0.35"/>
<path d="M1185.44 284.165L1067.55 283.835L1067.58 272.362L1091.45 272.362L1091.45 207.694C1091.57 204.654 1093.65 202.223 1096.25 202.081C1099.03 201.931 1101.39 204.444 1101.52 207.694L1101.52 272.362L1121.09 272.362L1121.09 243.003C1121.21 239.964 1123.29 237.533 1125.89 237.391C1128.67 237.241 1131.03 239.754 1131.16 243.003L1131.16 272.362L1150.73 272.362L1150.73 207.694C1150.85 204.654 1152.93 202.223 1155.53 202.081C1158.31 201.931 1160.67 204.444 1160.8 207.694L1160.8 272.362L1180.37 272.362L1180.37 243.003C1180.5 239.964 1182.58 237.533 1185.18 237.391C1187.96 237.241 1190.32 239.753 1190.44 243.003L1190.44 272.362L1210.02 272.362L1210.02 243.003C1210.01 242.822 1210.01 242.64 1210.02 242.458C1210.15 239.208 1212.5 236.695 1215.28 236.846C1218.07 236.996 1220.21 239.753 1220.09 243.003L1220.09 272.362L1239.66 272.362L1239.6 207.627C1239.86 204.911 1241.68 202.757 1244 202.426C1246.77 202.033 1249.28 204.331 1249.61 207.561L1249.61 272.23L1269.19 272.23L1269.3 243.003C1269.42 239.964 1271.5 237.533 1274.1 237.391C1276.88 237.241 1279.24 239.753 1279.37 243.003L1279.37 272.362L1298.94 272.362L1298.94 243.003C1298.94 242.822 1298.94 242.64 1298.94 242.458C1299.07 239.208 1301.43 236.695 1304.21 236.846C1306.99 236.996 1309.14 239.753 1309.01 243.003L1309.01 272.362L1328.58 272.362L1328.58 207.694C1328.71 204.654 1330.79 202.223 1333.39 202.081C1336.17 201.931 1338.52 204.444 1338.65 207.694L1338.65 272.362L1358.23 272.362L1358.23 243.003C1358.35 239.964 1360.43 237.533 1363.03 237.391C1365.81 237.241 1368.17 239.753 1368.3 243.003L1368.3 272.362L1387.87 272.362L1387.81 242.937C1387.8 242.755 1387.8 242.574 1387.81 242.392C1387.94 239.142 1390.3 236.629 1393.08 236.78C1395.86 236.93 1398.01 239.687 1397.88 242.937L1397.88 272.296L1417.45 272.296L1417.45 207.627C1417.45 207.446 1417.45 207.264 1417.45 207.082C1417.58 203.832 1419.94 201.319 1422.72 201.47C1425.5 201.62 1427.65 204.377 1427.52 207.627L1427.52 272.296L1498.49 272.065L1498.49 284.099L1422.57 284.033L1392.93 284.033L1244.72 284.033L1215.08 284.165L1185.44 284.165Z" fill="white" fill-opacity="0.35"/>
</svg>
