<svg width="231" height="1179" viewBox="0 0 231 1179" fill="none" xmlns="http://www.w3.org/2000/svg">
<path d="M-12.6995 202.515L-12.4167 31.5764L-2.60207 31.6174L-2.60208 66.2317L52.722 66.2317C55.322 66.407 57.4023 69.4235 57.5232 73.1935C57.6519 77.225 55.5023 80.6454 52.722 80.832L-2.60207 80.832L-2.60207 109.212L22.5144 109.212C25.1144 109.388 27.1947 112.404 27.3156 116.174C27.4443 120.206 25.2947 123.626 22.5144 123.813L-2.60207 123.813L-2.60206 152.193L52.722 152.193C55.322 152.369 57.4023 155.385 57.5232 159.155C57.6519 163.187 55.5023 166.607 52.722 166.794L-2.60205 166.794V195.174L22.5144 195.174C25.1144 195.349 27.1947 198.366 27.3156 202.136C27.4443 206.167 25.2947 209.588 22.5144 209.774L-2.60206 209.774V238.155L22.5144 238.155C22.6699 238.145 22.8255 238.145 22.9811 238.155C25.7614 238.341 27.911 241.762 27.7823 245.793C27.6536 249.825 25.2947 252.942 22.5144 252.755L-2.60205 252.755V281.136L52.7786 281.054C55.1028 281.426 56.9455 284.067 57.2284 287.434C57.565 291.441 55.5985 295.084 52.8351 295.572L-2.48892 295.572V323.952L22.5144 324.116C25.1144 324.292 27.1947 327.308 27.3156 331.078C27.4443 335.11 25.2947 338.53 22.5144 338.717L-2.60205 338.717V367.097L22.5144 367.097C22.6699 367.087 22.8255 367.087 22.9811 367.097C25.7614 367.284 27.911 370.704 27.7823 374.736C27.6536 378.767 25.2947 381.884 22.5144 381.698L-2.60205 381.698V410.078L52.722 410.078C55.322 410.253 57.4023 413.27 57.5232 417.04C57.6519 421.071 55.5023 424.492 52.722 424.678L-2.60205 424.678L-2.60206 453.059L22.5144 453.059C25.1144 453.234 27.1947 456.251 27.3156 460.021C27.4443 464.052 25.2947 467.472 22.5144 467.659L-2.60206 467.659L-2.60205 496.04L22.571 495.958C22.7265 495.947 22.8821 495.947 23.0376 495.958C25.818 496.144 27.9676 499.565 27.8389 503.596C27.7102 507.628 25.3513 510.744 22.571 510.558L-2.54549 510.558L-2.5455 538.938L52.7785 538.938C52.9341 538.928 53.0897 538.928 53.2452 538.938C56.0256 539.125 58.1752 542.545 58.0465 546.577C57.9178 550.608 55.5589 553.725 52.7786 553.539L-2.54551 553.539L-2.3475 656.438L-12.643 656.438L-12.5864 546.362L-12.5864 503.381L-12.5864 288.477L-12.6995 245.496L-12.6995 202.515Z" fill="white" fill-opacity="0.35"/>
<path d="M-11.6996 717.265L-11.4168 546.327L-1.60213 546.368L-1.60214 580.982L53.7219 580.982C56.3219 581.157 58.4022 584.174 58.5232 587.944C58.6519 591.975 56.5022 595.396 53.7219 595.582L-1.60214 595.582L-1.60213 623.963L23.5143 623.963C26.1144 624.138 28.1947 627.154 28.3156 630.925C28.4443 634.956 26.2946 638.376 23.5143 638.563L-1.60213 638.563L-1.60212 666.943L53.7219 666.943C56.3219 667.119 58.4023 670.135 58.5232 673.905C58.6519 677.937 56.5023 681.357 53.7219 681.544L-1.60211 681.544V709.924L23.5143 709.924C26.1144 710.1 28.1947 713.116 28.3156 716.886C28.4443 720.918 26.2947 724.338 23.5143 724.525L-1.60212 724.525V752.905L23.5143 752.905C23.6699 752.895 23.8254 752.895 23.981 752.905C26.7613 753.092 28.911 756.512 28.7823 760.544C28.6536 764.575 26.2947 767.692 23.5143 767.505L-1.60211 767.505V795.886L53.7785 795.804C56.1028 796.176 57.9455 798.817 58.2283 802.184C58.5649 806.191 56.5984 809.834 53.8351 810.322L-1.48898 810.322V838.703L23.5143 838.867C26.1143 839.042 28.1947 842.058 28.3156 845.828C28.4443 849.86 26.2947 853.28 23.5143 853.467L-1.60211 853.467V881.847L23.5143 881.847C23.6699 881.837 23.8255 881.837 23.981 881.847C26.7614 882.034 28.911 885.454 28.7823 889.486C28.6536 893.517 26.2947 896.634 23.5143 896.448L-1.60211 896.448V924.828L53.7219 924.828C56.3219 925.004 58.4023 928.02 58.5232 931.79C58.6519 935.822 56.5023 939.242 53.7219 939.429L-1.60211 939.429L-1.60212 967.809L23.5143 967.809C26.1144 967.984 28.1947 971.001 28.3156 974.771C28.4443 978.802 26.2947 982.223 23.5143 982.409L-1.60212 982.409L-1.60211 1010.79L23.5709 1010.71C23.7265 1010.7 23.882 1010.7 24.0376 1010.71C26.8179 1010.89 28.9675 1014.31 28.8388 1018.35C28.7101 1022.38 26.3512 1025.49 23.5709 1025.31L-1.54555 1025.31L-1.54556 1053.69L53.7785 1053.69C53.9341 1053.68 54.0896 1053.68 54.2452 1053.69C57.0255 1053.88 59.1751 1057.3 59.0464 1061.33C58.9178 1065.36 56.5588 1068.48 53.7785 1068.29L-1.54557 1068.29L-1.34756 1171.19L-11.6431 1171.19L-11.5865 1061.11L-11.5865 1018.13L-11.5865 803.227L-11.6996 760.246L-11.6996 717.265Z" fill="white" fill-opacity="0.35"/>
</svg>
